<svg width="192" height="192" viewBox="0 0 192 192" fill="none" xmlns="http://www.w3.org/2000/svg">
  <!-- Background Circle -->
  <circle cx="96" cy="96" r="88" fill="#1E40AF" />
  
  <!-- GitHub Icon -->
  <path d="M96 40C65.072 40 40 65.072 40 96C40 120.928 56.256 141.768 78.8 148.744C81.8 149.32 82.856 147.448 82.856 145.832C82.856 144.344 82.792 139.76 82.792 134.664C68 137.496 63.8 130.52 62.312 127.112C61.48 125.24 57.744 120 53.432 118.512C49.952 117.288 46.952 114.456 53.368 114.392C59.4 114.328 63.544 119.288 65.416 121.224C71.704 129.872 81.288 127.304 83.112 125.688C83.688 122.088 85.56 119.672 87.56 118.256C71.64 116.84 55 112.072 55 89.152C55 82.176 58.32 76.4 65.544 71.944C64.904 70.4 61.928 64.112 66.168 54.592C66.168 54.592 71.96 52.976 82.856 60.624C87.496 59.2 92.456 58.488 97.416 58.488C102.376 58.488 107.336 59.2 111.976 60.624C122.872 52.912 128.664 54.592 128.664 54.592C132.904 64.112 129.928 70.4 129.288 71.944C136.512 76.4 139.832 82.112 139.832 89.152C139.832 112.136 123.128 116.84 107.208 118.256C109.72 119.992 111.912 123.336 111.912 128.592C111.912 136.152 111.848 143.768 111.848 145.832C111.848 147.448 112.904 149.384 115.904 148.744C127.661 145.211 137.648 137.868 144.521 127.87C151.393 117.871 154.769 105.805 154 96C154 65.072 128.928 40 96 40Z" fill="white"/>
  
  <!-- Brain Icon -->
  <path d="M112 72C109.36 72 107.08 73.28 105.6 75.28C104.44 73.92 102.8 73 101 73C97.96 73 95.4 75.28 95.04 78.2C92.88 78.72 91.2 80.6 91.2 82.8C91.2 85.32 93.24 87.4 95.76 87.56C96.48 90.08 98.76 92 101.48 92C103.4 92 105.08 91.04 106.12 89.56C107.16 90.76 108.68 91.56 110.4 91.56C113.52 91.56 116 89.04 116 86C116 82.84 113.4 80.28 110.2 80.32C110.16 78.28 109.16 76.44 107.56 75.28C107.76 75.04 108.08 74.92 108.36 74.8C109.12 74.48 109.96 74.2 110.84 74.2C112.52 74.2 114 75.6 114 77.2C114 77.96 113.68 78.68 113.16 79.2C114.28 79.76 115.12 80.68 115.6 81.72C116.24 80.92 116.68 79.96 116.8 78.92C117.32 79.16 117.88 79.28 118.48 79.28C120.56 79.28 122.28 77.6 122.28 75.6C122.28 73.52 120.56 71.84 118.48 71.84C118.16 71.84 117.88 71.92 117.56 72C117.28 68.68 114.48 66 111 66C108.44 66 106.28 67.44 105.16 69.48C104.72 69.4 104.28 69.36 103.8 69.36C99 69.36 95 73.28 95 78C95 82.72 98.52 86.56 103.08 86.72C103.68 88.4 105.28 89.6 107.16 89.6C109.4 89.6 111.2 87.8 111.2 85.56C111.2 83.28 109.4 81.48 107.16 81.48C106.2 81.48 105.36 81.88 104.68 82.4C104.6 81.96 104.52 81.48 104.52 81C104.52 78.2 106.76 75.96 109.56 75.96C110.84 75.96 111.96 76.48 112.8 77.32C112.76 77.52 112.72 77.72 112.72 77.92C112.72 80.16 114.52 81.96 116.76 81.96C118.72 81.96 120.36 80.56 120.68 78.72C122.48 77.8 123.72 76.04 123.88 73.96C126.32 73.64 128.2 71.6 128.2 69.12C128.2 66.44 126 64.24 123.32 64.24C120.64 64.24 118.44 66.44 118.44 69.12C118.44 69.24 118.44 69.36 118.48 69.48C117.76 69.16 116.96 68.96 116.12 68.96C114.04 68.96 112.2 70 111.12 71.56C110.84 71.52 110.52 71.52 110.2 71.52C108.04 71.52 106.16 72.56 105.04 74.16C104.48 73.28 103.56 72.64 102.48 72.48C102.56 71.52 102.6 70.52 102.6 69.52C102.6 62.56 96.96 56.92 90 56.92C83.04 56.92 77.4 62.56 77.4 69.52C77.4 72.24 78.32 74.72 79.8 76.72C79.08 77.52 78.64 78.64 78.64 79.8C78.64 82.48 80.84 84.68 83.52 84.68C86.2 84.68 88.4 82.48 88.4 79.8C88.4 77.96 87.36 76.36 85.88 75.64C85.04 74.8 84.4 73.8 83.96 72.68C85.6 71.2 87.72 70.32 90.04 70.32C94.24 70.32 97.76 73.28 98.72 77.16C97.76 76.64 96.68 76.32 95.52 76.32C91.96 76.32 89.12 79.16 89.12 82.72C89.12 86.28 91.96 89.12 95.52 89.12C99.08 89.12 101.92 86.32 102 82.76C103.2 82.92 104.32 82.48 105.16 81.8C105.28 83.2 105.72 84.48 106.52 85.56C105.56 86.4 104.92 87.64 104.92 89C104.92 91.68 107.12 93.88 109.8 93.88C112.52 93.88 114.72 91.68 114.72 89C114.72 86.68 113.12 84.76 111 84.2C110.76 83.84 110.52 83.48 110.36 83.08C112.52 82.96 114.2 81.12 114.2 78.92C114.2 76.64 112.36 74.8 110.08 74.8C109.44 74.8 108.84 74.92 108.32 75.16C107.72 73.84 105.52 72 112 72Z" fill="#FBCB0A" />
  
  <!-- RepoMind Text -->
  <text x="96" y="168" font-family="Arial" font-size="18" font-weight="bold" text-anchor="middle" fill="white">REPOMIND</text>
</svg> 